HIERARCHY
ROOT Hips
{
	OFFSET 0.000000 0.000000 0.000000
	CHANNELS 6 Xposition Yposition Zposition Xrotation Yrotation Zrotation
	JOINT LeftUpLeg_virtual
	{
		OFFSET 0.000000 0.000000 0.000000
		CHANNELS 3 Xrotation Yrotation Zrotation
		JOINT LeftUpLeg
		{
			OFFSET 10.205400 -3.823500 0.155100
			CHANNELS 3 Xrotation Yrotation Zrotation
			JOINT LeftLeg
			{
				OFFSET 0.708757 -12.982077 0.567790
				CHANNELS 3 Xrotation Yrotation Zrotation
				JOINT LeftFoot
				{
					OFFSET -0.708756 -10.717838 -2.184338
					CHANNELS 3 Xrotation Yrotation Zrotation
					JOINT LeftToeBase
					{
						OFFSET 0.108149 -7.191104 7.560241
						CHANNELS 3 Xrotation Yrotation Zrotation
						JOINT LeftToe_End
						{
							OFFSET 0.070230 0.081724 4.490308
							CHANNELS 3 Xrotation Yrotation Zrotation
							End Site
							{
								OFFSET 0 0 0
							}
						}
					}
				}
			}
		}
	}
	JOINT RightUpLeg_virtual
	{
		OFFSET 0.000000 0.000000 0.000000
		CHANNELS 3 Xrotation Yrotation Zrotation
		JOINT RightUpLeg
		{
			OFFSET -10.205400 -3.823500 0.005500
			CHANNELS 3 Xrotation Yrotation Zrotation
			JOINT RightLeg
			{
				OFFSET -0.708756 -12.982134 0.610632
				CHANNELS 3 Xrotation Yrotation Zrotation
				JOINT RightFoot
				{
					OFFSET 0.708754 -10.717769 -1.945823
					CHANNELS 3 Xrotation Yrotation Zrotation
					JOINT RightToeBase
					{
						OFFSET -0.108140 -7.191069 7.372968
						CHANNELS 3 Xrotation Yrotation Zrotation
						JOINT RightToe_End
						{
							OFFSET -0.070227 0.081735 4.479403
							CHANNELS 3 Xrotation Yrotation Zrotation
							End Site
							{
								OFFSET 0 0 0
							}
						}
					}
				}
			}
		}
	}
	JOINT Spine_virtual
	{
		OFFSET 0.000000 0.000000 0.000000
		CHANNELS 3 Xrotation Yrotation Zrotation
		JOINT Spine
		{
			OFFSET 0.000000 6.876099 0.125700
			CHANNELS 3 Xrotation Yrotation Zrotation
			JOINT Spine1
			{
				OFFSET 0.000000 5.730043 0.104720
				CHANNELS 3 Xrotation Yrotation Zrotation
				JOINT Spine1_split
				{
					OFFSET 0.000000 5.730043 0.104720
					CHANNELS 3 Xrotation Yrotation Zrotation
					JOINT Spine2
					{
						OFFSET 0.000000 5.730043 0.104720
						CHANNELS 3 Xrotation Yrotation Zrotation
						JOINT Neck_virtual
						{
							OFFSET 0.000000 0.000000 0.000000
							CHANNELS 3 Xrotation Yrotation Zrotation
							JOINT Neck
							{
								OFFSET 0.000000 10.314075 0.188496
								CHANNELS 3 Xrotation Yrotation Zrotation
								JOINT Head
								{
									OFFSET 0.000000 7.643700 -2.377400
									CHANNELS 3 Xrotation Yrotation Zrotation
									JOINT HeadTop_End
									{
										OFFSET 0.000000 43.788605 -13.619600
										CHANNELS 3 Xrotation Yrotation Zrotation
										End Site
										{
											OFFSET 0 0 0
										}
									}
								}
							}
						}
						JOINT LeftShoulder_virtual
						{
							OFFSET 0.000000 0.000000 0.000000
							CHANNELS 3 Xrotation Yrotation Zrotation
							JOINT LeftShoulder
							{
								OFFSET 2.196100 4.412489 0.087492
								CHANNELS 3 Xrotation Yrotation Zrotation
								JOINT LeftShoulder_split
								{
									OFFSET 2.196100 4.412489 0.087492
									CHANNELS 3 Xrotation Yrotation Zrotation
									JOINT LeftArm
									{
										OFFSET 8.771219 -2.981674 -0.026999
										CHANNELS 3 Xrotation Yrotation Zrotation
										JOINT LeftForeArm
										{
											OFFSET 8.512804 0.000000 -0.000000
											CHANNELS 3 Xrotation Yrotation Zrotation
											JOINT LeftHand
											{
												OFFSET 18.484802 0.000000 -0.000000
												CHANNELS 3 Xrotation Yrotation Zrotation
												End Site
												{
													OFFSET 0 0 0
												}
											}
										}
									}
								}
							}
						}
						JOINT RightShoulder_virtual
						{
							OFFSET 0.000000 0.000000 0.000000
							CHANNELS 3 Xrotation Yrotation Zrotation
							JOINT RightShoulder
							{
								OFFSET -2.196100 4.412496 0.070690
								CHANNELS 3 Xrotation Yrotation Zrotation
								JOINT RightShoulder_split
								{
									OFFSET -2.196100 4.412496 0.070690
									CHANNELS 3 Xrotation Yrotation Zrotation
									JOINT RightArm
									{
										OFFSET -8.771282 -2.981682 -0.094208
										CHANNELS 3 Xrotation Yrotation Zrotation
										JOINT RightForeArm
										{
											OFFSET -8.494598 0.000000 0.000000
											CHANNELS 3 Xrotation Yrotation Zrotation
											JOINT RightHand
											{
												OFFSET -18.483803 0.000000 0.000001
												CHANNELS 3 Xrotation Yrotation Zrotation
												End Site
												{
													OFFSET 0 0 0
												}
											}
										}
									}
								}
							}
						}
					}
				}
			}
		}
	}
}
MOTION
Frames: 7
Frame Time: 0.03333333
-0.743515 21.696663 3.973899 0.000000 0.000000 0.000000 32.267846 -55.378737 28.818446 -77.076923 -7.886411 25.968531 91.597249 -13.157483 -0.743602 -32.141637 4.212431 -15.273985 -2.131417 -0.556240 2.541988 0.000000 0.000000 0.000000 34.367149 -58.629961 31.895266 -70.332814 3.185725 -38.378997 91.405061 12.728665 2.888857 -41.120150 -5.479036 13.309453 3.873581 1.953453 -0.658557 0.000000 0.000000 0.000000 36.277703 -54.679756 30.542919 8.170254 -1.758083 -2.311737 4.174865 -3.015032 -2.701485 1.078639 0.549658 0.622242 0.000000 0.000000 0.000000 3.254015 -3.445869 -2.110788 -4.006005 14.563533 -7.238263 -34.237559 34.988682 4.507472 0.000000 0.000000 0.000000 3.455509 -3.458197 -2.449633 4.846328 -9.335032 -6.182878 -4.098281 -3.330670 0.797795 -59.353470 2.725852 -23.048694 20.121092 -22.342128 16.824822 0.000000 0.000000 0.000000 3.621869 -3.162401 -2.191340 5.849270 7.635251 13.533872 3.958600 4.280399 -0.629312 -10.081463 -3.073536 53.757059 -16.975733 40.312490 8.609103 0.000000 0.000000 0.000000 
-0.594659 20.544750 3.620924 0.000000 0.000000 0.000000 33.633422 -54.595389 29.603768 -82.284621 -11.952230 26.174028 96.980763 -14.451936 -0.864738 -31.912068 4.270979 -16.677879 -2.540768 -0.519242 2.227922 0.000000 0.000000 0.000000 35.945718 -57.711943 32.806649 -76.146405 5.447357 -39.087725 96.970450 14.244336 2.728845 -40.704488 -4.801929 12.676576 3.798592 2.032948 -0.594570 0.000000 0.000000 0.000000 37.763819 -54.079088 31.404633 7.568608 -1.773791 -2.130893 4.435158 -2.832608 -2.632350 1.188271 0.347113 0.651595 0.000000 0.000000 0.000000 3.532216 -3.277582 -2.046917 -2.704317 15.193250 -8.350692 -34.636685 33.857029 3.842043 0.000000 0.000000 0.000000 3.705506 -3.289619 -2.438566 5.195119 -9.557730 -6.149125 -3.822949 -3.237744 1.069238 -60.763535 1.408418 -23.230343 21.109475 -21.882365 16.780769 0.000000 0.000000 0.000000 3.888793 -2.961710 -2.118748 6.246990 7.903910 13.786886 4.096236 4.366779 -0.764381 -9.847762 -1.446826 52.010022 -17.648857 41.955656 9.288859 0.000000 0.000000 0.000000 
-0.461356 19.426416 3.289684 0.000000 0.000000 0.000000 34.486199 -53.926427 29.844676 -86.917040 -15.954169 26.370655 101.858167 -15.867422 -0.751399 -31.535871 4.098031 -18.075478 -3.060323 -0.445030 1.860901 0.000000 0.000000 0.000000 37.082108 -57.001101 33.202683 -81.714061 7.745094 -39.401097 102.055443 15.348735 2.944323 -39.496539 -4.515394 11.800967 3.776492 1.944825 -0.494863 0.000000 0.000000 0.000000 38.850314 -53.701929 31.898073 7.021560 -1.732971 -1.944112 4.679001 -2.599234 -2.558126 1.164174 0.097634 0.762888 0.000000 0.000000 0.000000 3.827825 -3.052781 -1.984240 -1.208897 15.796107 -9.440276 -34.505743 32.914470 3.027791 0.000000 0.000000 0.000000 3.970515 -3.071392 -2.430491 5.564267 -9.567335 -6.163500 -3.557600 -3.094968 1.218408 -61.904204 0.306420 -23.582063 22.200837 -21.452366 16.605179 0.000000 0.000000 0.000000 4.155625 -2.718892 -2.059653 6.667945 8.109040 14.074992 4.248944 4.371945 -0.839462 -9.319788 0.015052 50.003992 -18.011043 42.982524 9.822768 0.000000 0.000000 0.000000 
-0.347690 18.387787 2.968821 0.000000 0.000000 0.000000 34.914421 -53.323840 29.673603 -90.956577 -19.785436 26.585518 106.123006 -17.337254 -0.437211 -30.901548 3.673928 -19.475282 -3.564388 -0.348962 1.498902 0.000000 0.000000 0.000000 37.789316 -56.526236 33.235646 -86.857672 10.018340 -39.488035 106.685492 16.222944 3.369086 -37.398650 -4.577459 10.978394 3.476118 1.756563 -0.404064 0.000000 0.000000 0.000000 39.690318 -53.491453 32.180085 6.523795 -1.634342 -1.773626 4.906397 -2.357489 -2.512043 0.952200 -0.273123 0.886796 0.000000 0.000000 0.000000 4.115814 -2.804917 -1.947174 0.437106 16.398958 -10.479733 -34.027883 32.086163 2.201217 0.000000 0.000000 0.000000 4.238917 -2.837122 -2.443746 5.955543 -9.352302 -6.207329 -3.269959 -2.946902 1.208570 -62.790271 -0.611018 -24.022662 23.406759 -20.998230 16.336829 0.000000 0.000000 0.000000 4.408109 -2.477120 -2.038165 7.108823 8.283515 14.501091 4.448013 4.309402 -0.828298 -8.662270 1.111725 47.891114 -18.002915 43.568663 10.175746 0.000000 0.000000 0.000000 
-0.280135 17.461201 2.684906 0.000000 0.000000 0.000000 35.042094 -52.711316 29.229395 -94.453108 -23.361885 26.773148 109.672798 -18.802070 -0.007656 -29.930097 3.037752 -20.817459 -3.895285 -0.250677 1.168524 0.000000 0.000000 0.000000 38.142614 -56.144141 33.019238 -91.426809 12.274934 -39.406657 110.688331 17.068390 3.657985 -34.552404 -4.890170 10.686169 2.632572 1.570128 -0.409850 0.000000 0.000000 0.000000 40.296586 -53.358517 32.275366 6.057425 -1.501164 -1.632656 5.124558 -2.143836 -2.500841 0.792802 -0.703443 1.009284 0.000000 0.000000 0.000000 4.383269 -2.574592 -1.940821 2.150242 17.012367 -11.467094 -33.427871 31.313320 1.491873 0.000000 0.000000 0.000000 4.506946 -2.618960 -2.470741 6.379147 -8.959309 -6.276490 -2.957002 -2.864193 1.022256 -63.416435 -1.408943 -24.519437 24.770378 -20.646246 16.096656 0.000000 0.000000 0.000000 4.658541 -2.274265 -2.067535 7.564502 8.480908 15.125218 4.684468 4.256139 -0.797007 -8.039854 1.793531 45.695786 -17.622863 43.935731 10.355818 0.000000 0.000000 0.000000 
-0.264811 16.679266 2.415483 0.000000 0.000000 0.000000 35.059402 -52.090899 28.720908 -97.443024 -26.583651 26.876967 112.411007 -20.180282 0.435980 -28.609545 2.255317 -22.148721 -4.090985 -0.162134 0.929588 0.000000 0.000000 0.000000 38.217815 -55.779559 32.625966 -95.285927 14.432668 -39.142708 113.988808 17.931034 3.620454 -31.393356 -5.298372 11.054099 1.286226 1.449516 -0.513034 0.000000 0.000000 0.000000 40.850545 -53.262785 32.328686 5.633283 -1.365054 -1.510366 5.352315 -1.991692 -2.511891 0.719037 -1.084218 1.127677 0.000000 0.000000 0.000000 4.638866 -2.392754 -1.955090 3.855021 17.656874 -12.422691 -32.910710 30.635068 0.964582 0.000000 0.000000 0.000000 4.789462 -2.444186 -2.497327 6.830691 -8.433638 -6.376222 -2.657176 -2.927847 0.758285 -63.877555 -2.090625 -25.050882 26.320330 -20.474315 15.979940 0.000000 0.000000 0.000000 4.926232 -2.133300 -2.128161 8.022823 8.775362 15.953083 4.873450 4.237502 -0.801950 -7.521239 2.172743 43.408045 -16.882891 44.176513 10.343352 0.000000 0.000000 0.000000 
-0.288977 16.050610 2.182781 0.000000 0.000000 0.000000 34.963236 -51.393946 28.154868 -100.015607 -29.324806 26.835827 114.300210 -21.440654 0.784807 -26.929074 1.429071 -23.468733 -4.246428 -0.083073 0.780545 0.000000 0.000000 0.000000 38.002449 -55.217981 32.004941 -98.384989 16.371692 -38.800092 116.590154 18.736775 3.220362 -28.280321 -5.625408 11.793745 -0.313843 1.478987 -0.654204 0.000000 0.000000 0.000000 41.418479 -53.122937 32.361139 5.224501 -1.261460 -1.384743 5.613461 -1.898174 -2.520595 0.769812 -1.325343 1.129888 0.000000 0.000000 0.000000 4.896141 -2.269703 -1.969461 5.444194 18.308597 -13.344011 -32.631553 30.099694 0.657116 0.000000 0.000000 0.000000 5.082763 -2.319064 -2.504766 7.293418 -7.856429 -6.528286 -2.479882 -3.018978 0.449300 -64.336400 -2.728301 -25.615595 28.056575 -20.480483 16.035928 0.000000 0.000000 0.000000 5.215344 -2.052721 -2.185656 8.463124 9.224335 16.932898 4.999919 4.285437 -0.880393 -7.079430 2.399709 41.062459 -15.821156 44.282053 10.103686 0.000000 0.000000 0.000000 
